<svg xmlns="http://www.w3.org/2000/svg" viewBox="0 0 64 64">
  <rect width="64" height="64" rx="14" fill="#894ef7"/>
  <g fill="#ffffff" transform="translate(7.108 18.53) scale(0.1598)">
    <path d="M47.41 133.82L47.41 110.44C47.41 102.93 42.05 97.35 34.54 97.35C18.67 97.35 5.58 84.27 5.58 68.39L5.58 34.71C5.58 18.83 18.67 5.75 34.54 5.75C50.42 5.75 63.5 18.83 63.5 34.71L63.5 58.52C63.5 65.6 69.08 71.39 76.37 71.39C83.45 71.39 89.25 65.6 89.25 58.52L89.25 34.71C89.25 18.83 102.33 5.75 118.21 5.75C134.08 5.75 147.17 18.83 147.17 34.71L147.17 68.39C147.17 84.27 134.08 97.35 118.21 97.35C110.91 97.35 105.34 102.93 105.34 110.44L105.34 133.82C105.34 149.7 92.25 162.78 76.37 162.78C60.5 162.78 47.41 149.7 47.41 133.82"/>
    <path d="M164.33 34.71C164.33 18.83 177.42 5.75 193.29 5.75C209.17 5.75 222.26 18.83 222.26 34.71L222.26 90.7C222.26 97.78 227.83 103.57 235.13 103.57C242.21 103.57 248 97.78 248 90.7L248 34.71C248 18.83 261.08 5.75 276.96 5.75C292.84 5.75 305.92 18.83 305.92 34.71L305.92 91.99C305.92 131.03 274.17 162.78 235.13 162.78C196.08 162.78 164.33 131.03 164.33 91.99L164.33 34.71"/>
  </g>
</svg>
